<?xml version="1.0" encoding="utf-8"?>
<svg xmlns="http://www.w3.org/2000/svg" xmlns:xlink="http://www.w3.org/1999/xlink" width="600" height="400" viewBox="0 0 2400 1600">
<defs>
  <clipPath id="clip310">
    <rect x="0" y="0" width="2400" height="1600"/>
  </clipPath>
</defs>
<path clip-path="url(#clip310)" d="
M0 1600 L2400 1600 L2400 0 L0 0  Z
  " fill="#ffffff" fill-rule="evenodd" fill-opacity="1"/>
<defs>
  <clipPath id="clip311">
    <rect x="480" y="0" width="1681" height="1600"/>
  </clipPath>
</defs>
<path clip-path="url(#clip310)" d="
M86.9921 1521.01 L2352.76 1521.01 L2352.76 47.2441 L86.9921 47.2441  Z
  " fill="#ffffff" fill-rule="evenodd" fill-opacity="1"/>
<defs>
  <clipPath id="clip312">
    <rect x="86" y="47" width="2267" height="1475"/>
  </clipPath>
</defs>
<polyline clip-path="url(#clip312)" style="stroke:#000000; stroke-linecap:butt; stroke-linejoin:round; stroke-width:2; stroke-opacity:0.1; fill:none" points="
  388.619,1521.01 388.619,47.2441 
  "/>
<polyline clip-path="url(#clip312)" style="stroke:#000000; stroke-linecap:butt; stroke-linejoin:round; stroke-width:2; stroke-opacity:0.1; fill:none" points="
  863.622,1521.01 863.622,47.2441 
  "/>
<polyline clip-path="url(#clip312)" style="stroke:#000000; stroke-linecap:butt; stroke-linejoin:round; stroke-width:2; stroke-opacity:0.1; fill:none" points="
  1338.62,1521.01 1338.62,47.2441 
  "/>
<polyline clip-path="url(#clip312)" style="stroke:#000000; stroke-linecap:butt; stroke-linejoin:round; stroke-width:2; stroke-opacity:0.1; fill:none" points="
  1813.63,1521.01 1813.63,47.2441 
  "/>
<polyline clip-path="url(#clip312)" style="stroke:#000000; stroke-linecap:butt; stroke-linejoin:round; stroke-width:2; stroke-opacity:0.1; fill:none" points="
  2288.63,1521.01 2288.63,47.2441 
  "/>
<polyline clip-path="url(#clip310)" style="stroke:#000000; stroke-linecap:butt; stroke-linejoin:round; stroke-width:4; stroke-opacity:1; fill:none" points="
  86.9921,1521.01 2352.76,1521.01 
  "/>
<polyline clip-path="url(#clip310)" style="stroke:#000000; stroke-linecap:butt; stroke-linejoin:round; stroke-width:4; stroke-opacity:1; fill:none" points="
  388.619,1521.01 388.619,1503.32 
  "/>
<polyline clip-path="url(#clip310)" style="stroke:#000000; stroke-linecap:butt; stroke-linejoin:round; stroke-width:4; stroke-opacity:1; fill:none" points="
  863.622,1521.01 863.622,1503.32 
  "/>
<polyline clip-path="url(#clip310)" style="stroke:#000000; stroke-linecap:butt; stroke-linejoin:round; stroke-width:4; stroke-opacity:1; fill:none" points="
  1338.62,1521.01 1338.62,1503.32 
  "/>
<polyline clip-path="url(#clip310)" style="stroke:#000000; stroke-linecap:butt; stroke-linejoin:round; stroke-width:4; stroke-opacity:1; fill:none" points="
  1813.63,1521.01 1813.63,1503.32 
  "/>
<polyline clip-path="url(#clip310)" style="stroke:#000000; stroke-linecap:butt; stroke-linejoin:round; stroke-width:4; stroke-opacity:1; fill:none" points="
  2288.63,1521.01 2288.63,1503.32 
  "/>
<path clip-path="url(#clip310)" d="M383.272 1577.74 L399.591 1577.74 L399.591 1581.68 L377.647 1581.68 L377.647 1577.74 Q380.309 1574.99 384.892 1570.36 Q389.499 1565.71 390.679 1564.37 Q392.924 1561.84 393.804 1560.11 Q394.707 1558.35 394.707 1556.66 Q394.707 1553.9 392.762 1552.17 Q390.841 1550.43 387.739 1550.43 Q385.54 1550.43 383.087 1551.19 Q380.656 1551.96 377.878 1553.51 L377.878 1548.79 Q380.702 1547.65 383.156 1547.07 Q385.61 1546.49 387.647 1546.49 Q393.017 1546.49 396.212 1549.18 Q399.406 1551.87 399.406 1556.36 Q399.406 1558.49 398.596 1560.41 Q397.809 1562.3 395.702 1564.9 Q395.124 1565.57 392.022 1568.79 Q388.92 1571.98 383.272 1577.74 Z" fill="#000000" fill-rule="evenodd" fill-opacity="1" /><path clip-path="url(#clip310)" d="M866.631 1551.19 L854.826 1569.64 L866.631 1569.64 L866.631 1551.19 M865.404 1547.12 L871.284 1547.12 L871.284 1569.64 L876.214 1569.64 L876.214 1573.53 L871.284 1573.53 L871.284 1581.68 L866.631 1581.68 L866.631 1573.53 L851.029 1573.53 L851.029 1569.02 L865.404 1547.12 Z" fill="#000000" fill-rule="evenodd" fill-opacity="1" /><path clip-path="url(#clip310)" d="M1339.03 1562.54 Q1335.88 1562.54 1334.03 1564.69 Q1332.2 1566.84 1332.2 1570.59 Q1332.2 1574.32 1334.03 1576.49 Q1335.88 1578.65 1339.03 1578.65 Q1342.18 1578.65 1344.01 1576.49 Q1345.86 1574.32 1345.86 1570.59 Q1345.86 1566.84 1344.01 1564.69 Q1342.18 1562.54 1339.03 1562.54 M1348.31 1547.88 L1348.31 1552.14 Q1346.55 1551.31 1344.75 1550.87 Q1342.96 1550.43 1341.21 1550.43 Q1336.58 1550.43 1334.12 1553.56 Q1331.69 1556.68 1331.34 1563 Q1332.71 1560.99 1334.77 1559.92 Q1336.83 1558.83 1339.31 1558.83 Q1344.52 1558.83 1347.53 1562 Q1350.56 1565.15 1350.56 1570.59 Q1350.56 1575.92 1347.41 1579.13 Q1344.26 1582.35 1339.03 1582.35 Q1333.03 1582.35 1329.86 1577.77 Q1326.69 1573.16 1326.69 1564.43 Q1326.69 1556.24 1330.58 1551.38 Q1334.47 1546.49 1341.02 1546.49 Q1342.78 1546.49 1344.56 1546.84 Q1346.37 1547.19 1348.31 1547.88 Z" fill="#000000" fill-rule="evenodd" fill-opacity="1" /><path clip-path="url(#clip310)" d="M1813.63 1565.27 Q1810.29 1565.27 1808.37 1567.05 Q1806.47 1568.83 1806.47 1571.96 Q1806.47 1575.08 1808.37 1576.87 Q1810.29 1578.65 1813.63 1578.65 Q1816.96 1578.65 1818.88 1576.87 Q1820.8 1575.06 1820.8 1571.96 Q1820.8 1568.83 1818.88 1567.05 Q1816.98 1565.27 1813.63 1565.27 M1808.95 1563.28 Q1805.94 1562.54 1804.25 1560.48 Q1802.59 1558.42 1802.59 1555.45 Q1802.59 1551.31 1805.53 1548.9 Q1808.49 1546.49 1813.63 1546.49 Q1818.79 1546.49 1821.73 1548.9 Q1824.67 1551.31 1824.67 1555.45 Q1824.67 1558.42 1822.98 1560.48 Q1821.31 1562.54 1818.33 1563.28 Q1821.71 1564.06 1823.58 1566.36 Q1825.48 1568.65 1825.48 1571.96 Q1825.48 1576.98 1822.4 1579.67 Q1819.35 1582.35 1813.63 1582.35 Q1807.91 1582.35 1804.83 1579.67 Q1801.78 1576.98 1801.78 1571.96 Q1801.78 1568.65 1803.67 1566.36 Q1805.57 1564.06 1808.95 1563.28 M1807.24 1555.89 Q1807.24 1558.58 1808.91 1560.08 Q1810.6 1561.59 1813.63 1561.59 Q1816.64 1561.59 1818.33 1560.08 Q1820.04 1558.58 1820.04 1555.89 Q1820.04 1553.21 1818.33 1551.7 Q1816.64 1550.2 1813.63 1550.2 Q1810.6 1550.2 1808.91 1551.7 Q1807.24 1553.21 1807.24 1555.89 Z" fill="#000000" fill-rule="evenodd" fill-opacity="1" /><path clip-path="url(#clip310)" d="M2263.32 1577.74 L2270.96 1577.74 L2270.96 1551.38 L2262.65 1553.05 L2262.65 1548.79 L2270.91 1547.12 L2275.59 1547.12 L2275.59 1577.74 L2283.23 1577.74 L2283.23 1581.68 L2263.32 1581.68 L2263.32 1577.74 Z" fill="#000000" fill-rule="evenodd" fill-opacity="1" /><path clip-path="url(#clip310)" d="M2302.67 1550.2 Q2299.06 1550.2 2297.23 1553.76 Q2295.42 1557.31 2295.42 1564.43 Q2295.42 1571.54 2297.23 1575.11 Q2299.06 1578.65 2302.67 1578.65 Q2306.3 1578.65 2308.11 1575.11 Q2309.94 1571.54 2309.94 1564.43 Q2309.94 1557.31 2308.11 1553.76 Q2306.3 1550.2 2302.67 1550.2 M2302.67 1546.49 Q2308.48 1546.49 2311.54 1551.1 Q2314.61 1555.68 2314.61 1564.43 Q2314.61 1573.16 2311.54 1577.77 Q2308.48 1582.35 2302.67 1582.35 Q2296.86 1582.35 2293.78 1577.77 Q2290.73 1573.16 2290.73 1564.43 Q2290.73 1555.68 2293.78 1551.1 Q2296.86 1546.49 2302.67 1546.49 Z" fill="#000000" fill-rule="evenodd" fill-opacity="1" /><polyline clip-path="url(#clip312)" style="stroke:#000000; stroke-linecap:butt; stroke-linejoin:round; stroke-width:2; stroke-opacity:0.1; fill:none" points="
  86.9921,1324.82 2352.76,1324.82 
  "/>
<polyline clip-path="url(#clip312)" style="stroke:#000000; stroke-linecap:butt; stroke-linejoin:round; stroke-width:2; stroke-opacity:0.1; fill:none" points="
  86.9921,1015.85 2352.76,1015.85 
  "/>
<polyline clip-path="url(#clip312)" style="stroke:#000000; stroke-linecap:butt; stroke-linejoin:round; stroke-width:2; stroke-opacity:0.1; fill:none" points="
  86.9921,706.885 2352.76,706.885 
  "/>
<polyline clip-path="url(#clip312)" style="stroke:#000000; stroke-linecap:butt; stroke-linejoin:round; stroke-width:2; stroke-opacity:0.1; fill:none" points="
  86.9921,397.92 2352.76,397.92 
  "/>
<polyline clip-path="url(#clip312)" style="stroke:#000000; stroke-linecap:butt; stroke-linejoin:round; stroke-width:2; stroke-opacity:0.1; fill:none" points="
  86.9921,88.9544 2352.76,88.9544 
  "/>
<polyline clip-path="url(#clip310)" style="stroke:#000000; stroke-linecap:butt; stroke-linejoin:round; stroke-width:4; stroke-opacity:1; fill:none" points="
  86.9921,1521.01 86.9921,47.2441 
  "/>
<polyline clip-path="url(#clip310)" style="stroke:#000000; stroke-linecap:butt; stroke-linejoin:round; stroke-width:4; stroke-opacity:1; fill:none" points="
  86.9921,1324.82 114.181,1324.82 
  "/>
<polyline clip-path="url(#clip310)" style="stroke:#000000; stroke-linecap:butt; stroke-linejoin:round; stroke-width:4; stroke-opacity:1; fill:none" points="
  86.9921,1015.85 114.181,1015.85 
  "/>
<polyline clip-path="url(#clip310)" style="stroke:#000000; stroke-linecap:butt; stroke-linejoin:round; stroke-width:4; stroke-opacity:1; fill:none" points="
  86.9921,706.885 114.181,706.885 
  "/>
<polyline clip-path="url(#clip310)" style="stroke:#000000; stroke-linecap:butt; stroke-linejoin:round; stroke-width:4; stroke-opacity:1; fill:none" points="
  86.9921,397.92 114.181,397.92 
  "/>
<polyline clip-path="url(#clip310)" style="stroke:#000000; stroke-linecap:butt; stroke-linejoin:round; stroke-width:4; stroke-opacity:1; fill:none" points="
  86.9921,88.9544 114.181,88.9544 
  "/>
<path clip-path="url(#clip310)" d="M34.6728 1338.16 L50.9921 1338.16 L50.9921 1342.1 L29.0478 1342.1 L29.0478 1338.16 Q31.7098 1335.41 36.2931 1330.78 Q40.8996 1326.12 42.0801 1324.78 Q44.3255 1322.26 45.2051 1320.52 Q46.1079 1318.76 46.1079 1317.07 Q46.1079 1314.32 44.1635 1312.58 Q42.2422 1310.85 39.1403 1310.85 Q36.9413 1310.85 34.4876 1311.61 Q32.057 1312.37 29.2793 1313.92 L29.2793 1309.2 Q32.1033 1308.07 34.557 1307.49 Q37.0107 1306.91 39.0477 1306.91 Q44.4181 1306.91 47.6125 1309.6 Q50.8069 1312.28 50.8069 1316.77 Q50.8069 1318.9 49.9968 1320.82 Q49.2097 1322.72 47.1033 1325.31 Q46.5246 1325.98 43.4227 1329.2 Q40.3209 1332.4 34.6728 1338.16 Z" fill="#000000" fill-rule="evenodd" fill-opacity="1" /><path clip-path="url(#clip310)" d="M41.4088 1002.64 L29.6034 1021.09 L41.4088 1021.09 L41.4088 1002.64 M40.182 998.57 L46.0616 998.57 L46.0616 1021.09 L50.9921 1021.09 L50.9921 1024.98 L46.0616 1024.98 L46.0616 1033.13 L41.4088 1033.13 L41.4088 1024.98 L25.8071 1024.98 L25.8071 1020.47 L40.182 998.57 Z" fill="#000000" fill-rule="evenodd" fill-opacity="1" /><path clip-path="url(#clip310)" d="M39.4644 705.021 Q36.3163 705.021 34.4644 707.174 Q32.6357 709.327 32.6357 713.077 Q32.6357 716.804 34.4644 718.98 Q36.3163 721.132 39.4644 721.132 Q42.6125 721.132 44.4412 718.98 Q46.2931 716.804 46.2931 713.077 Q46.2931 709.327 44.4412 707.174 Q42.6125 705.021 39.4644 705.021 M48.7468 690.369 L48.7468 694.628 Q46.9875 693.794 45.182 693.355 Q43.3996 692.915 41.6403 692.915 Q37.0107 692.915 34.557 696.04 Q32.1265 699.165 31.7793 705.484 Q33.145 703.47 35.2052 702.406 Q37.2653 701.318 39.7422 701.318 Q44.9505 701.318 47.9597 704.489 Q50.9921 707.637 50.9921 713.077 Q50.9921 718.401 47.844 721.618 Q44.6959 724.836 39.4644 724.836 Q33.4691 724.836 30.2978 720.253 Q27.1265 715.646 27.1265 706.919 Q27.1265 698.725 31.0154 693.864 Q34.9042 688.98 41.4551 688.98 Q43.2144 688.98 44.9968 689.327 Q46.8023 689.674 48.7468 690.369 Z" fill="#000000" fill-rule="evenodd" fill-opacity="1" /><path clip-path="url(#clip310)" d="M39.1403 398.788 Q35.807 398.788 33.8857 400.57 Q31.9876 402.352 31.9876 405.477 Q31.9876 408.602 33.8857 410.385 Q35.807 412.167 39.1403 412.167 Q42.4737 412.167 44.3949 410.385 Q46.3162 408.579 46.3162 405.477 Q46.3162 402.352 44.3949 400.57 Q42.4968 398.788 39.1403 398.788 M34.4644 396.797 Q31.4552 396.056 29.7654 393.996 Q28.0987 391.936 28.0987 388.973 Q28.0987 384.829 31.0385 382.422 Q34.0015 380.015 39.1403 380.015 Q44.3023 380.015 47.2421 382.422 Q50.1819 384.829 50.1819 388.973 Q50.1819 391.936 48.4921 393.996 Q46.8255 396.056 43.8394 396.797 Q47.219 397.584 49.094 399.876 Q50.9921 402.167 50.9921 405.477 Q50.9921 410.5 47.9134 413.186 Q44.8579 415.871 39.1403 415.871 Q33.4228 415.871 30.3441 413.186 Q27.2885 410.5 27.2885 405.477 Q27.2885 402.167 29.1867 399.876 Q31.0848 397.584 34.4644 396.797 M32.7515 389.413 Q32.7515 392.098 34.4181 393.602 Q36.1079 395.107 39.1403 395.107 Q42.1496 395.107 43.8394 393.602 Q45.5523 392.098 45.5523 389.413 Q45.5523 386.727 43.8394 385.223 Q42.1496 383.718 39.1403 383.718 Q36.1079 383.718 34.4181 385.223 Q32.7515 386.727 32.7515 389.413 Z" fill="#000000" fill-rule="evenodd" fill-opacity="1" /><path clip-path="url(#clip310)" d="M-0.303895 102.299 L7.33495 102.299 L7.33495 75.9336 L-0.975188 77.6003 L-0.975188 73.341 L7.28866 71.6744 L11.9646 71.6744 L11.9646 102.299 L19.6034 102.299 L19.6034 106.234 L-0.303895 106.234 L-0.303895 102.299 Z" fill="#000000" fill-rule="evenodd" fill-opacity="1" /><path clip-path="url(#clip310)" d="M39.0477 74.7531 Q35.4367 74.7531 33.608 78.3179 Q31.8024 81.8595 31.8024 88.9891 Q31.8024 96.0956 33.608 99.6604 Q35.4367 103.202 39.0477 103.202 Q42.682 103.202 44.4875 99.6604 Q46.3162 96.0956 46.3162 88.9891 Q46.3162 81.8595 44.4875 78.3179 Q42.682 74.7531 39.0477 74.7531 M39.0477 71.0494 Q44.8579 71.0494 47.9134 75.6559 Q50.9921 80.2392 50.9921 88.9891 Q50.9921 97.7159 47.9134 102.322 Q44.8579 106.906 39.0477 106.906 Q33.2376 106.906 30.1589 102.322 Q27.1034 97.7159 27.1034 88.9891 Q27.1034 80.2392 30.1589 75.6559 Q33.2376 71.0494 39.0477 71.0494 Z" fill="#000000" fill-rule="evenodd" fill-opacity="1" /><polyline clip-path="url(#clip312)" style="stroke:#009af9; stroke-linecap:butt; stroke-linejoin:round; stroke-width:4; stroke-opacity:1; fill:none" points="
  151.118,1479.3 388.619,1324.82 626.12,1170.33 863.622,1015.85 1101.12,861.367 1338.62,706.885 1576.13,552.402 1813.63,397.92 2051.13,243.437 2288.63,88.9544 
  
  "/>
<path clip-path="url(#clip310)" d="
M1973.05 200.05 L2277.23 200.05 L2277.23 96.3696 L1973.05 96.3696  Z
  " fill="#ffffff" fill-rule="evenodd" fill-opacity="1"/>
<polyline clip-path="url(#clip310)" style="stroke:#000000; stroke-linecap:butt; stroke-linejoin:round; stroke-width:4; stroke-opacity:1; fill:none" points="
  1973.05,200.05 2277.23,200.05 2277.23,96.3696 1973.05,96.3696 1973.05,200.05 
  "/>
<polyline clip-path="url(#clip310)" style="stroke:#009af9; stroke-linecap:butt; stroke-linejoin:round; stroke-width:4; stroke-opacity:1; fill:none" points="
  1998.22,148.21 2149.27,148.21 
  "/>
<path clip-path="url(#clip310)" d="M2188.29 167.897 Q2186.49 172.527 2184.77 173.939 Q2183.06 175.351 2180.19 175.351 L2176.79 175.351 L2176.79 171.786 L2179.29 171.786 Q2181.05 171.786 2182.02 170.952 Q2182.99 170.119 2184.17 167.017 L2184.94 165.073 L2174.45 139.564 L2178.96 139.564 L2187.07 159.841 L2195.17 139.564 L2199.68 139.564 L2188.29 167.897 Z" fill="#000000" fill-rule="evenodd" fill-opacity="1" /><path clip-path="url(#clip310)" d="M2206.97 161.554 L2214.61 161.554 L2214.61 135.189 L2206.3 136.855 L2206.3 132.596 L2214.57 130.93 L2219.24 130.93 L2219.24 161.554 L2226.88 161.554 L2226.88 165.49 L2206.97 165.49 L2206.97 161.554 Z" fill="#000000" fill-rule="evenodd" fill-opacity="1" /></svg>
