<?xml version="1.0" encoding="UTF-8" standalone="no"?><svg xmlns="http://www.w3.org/2000/svg" xmlns:xlink="http://www.w3.org/1999/xlink" contentScriptType="application/ecmascript" contentStyleType="text/css" height="259px" preserveAspectRatio="none" style="width:423px;height:259px;background:#FFFFFF;" version="1.1" viewBox="0 0 423 259" width="423px" zoomAndPan="magnify"><defs><filter height="300%" id="ft3slw74ypb7q" width="300%" x="-1" y="-1"><feGaussianBlur result="blurOut" stdDeviation="2.0"/><feColorMatrix in="blurOut" result="blurOut2" type="matrix" values="0 0 0 0 0 0 0 0 0 0 0 0 0 0 0 0 0 0 .4 0"/><feOffset dx="4.0" dy="4.0" in="blurOut2" result="blurOut3"/><feBlend in="SourceGraphic" in2="blurOut3" mode="normal"/></filter></defs><g><ellipse cx="81.4058" cy="126.659" fill="#FEFECE" filter="url(#ft3slw74ypb7q)" rx="28.4558" ry="14.659" style="stroke:#A80036;stroke-width:1.5;"/><text fill="#000000" font-family="sans-serif" font-size="14" lengthAdjust="spacing" textLength="24" x="69.4058" y="129.95">흡연</text><ellipse cx="190.4058" cy="232.659" fill="#FEFECE" filter="url(#ft3slw74ypb7q)" rx="28.4558" ry="14.659" style="stroke:#A80036;stroke-width:1.5;"/><text fill="#000000" font-family="sans-serif" font-size="14" lengthAdjust="spacing" textLength="24" x="178.4058" y="235.95">폐암</text><ellipse cx="130.3972" cy="20.6647" fill="#FEFECE" filter="url(#ft3slw74ypb7q)" rx="45.4472" ry="14.6647" style="stroke:#A80036;stroke-width:1.5;"/><text fill="#000000" font-family="sans-serif" font-size="14" lengthAdjust="spacing" textLength="48" x="105.4568" y="24.2142">스트레스</text><!--MD5=[e2116cafbfa6ad64ff8e65496b556aa5]
link 흡연 to 폐암--><path d="M94.38,139.84 C114.13,158.68 151.81,194.63 173.65,215.47 " fill="none" id="흡연-to-폐암" style="stroke:#A80036;stroke-width:1.0;"/><polygon fill="#A80036" points="177.53,219.18,173.7723,210.0762,173.9097,215.7314,168.2545,215.8687,177.53,219.18" style="stroke:#A80036;stroke-width:1.0;"/><text fill="#000000" font-family="sans-serif" font-size="13" lengthAdjust="spacing" textLength="49" x="143.45" y="184.5684">인과관계?</text><!--MD5=[5053d73ba8f38b504325e6893d3cb4b9]
link 스트레스 to 흡연--><path d="M88.66,26.29 C64.09,31.49 34.9,42.34 19.45,65 C6,84.72 33.05,103.24 55.56,114.47 " fill="none" id="스트레스-to-흡연" style="stroke:#A80036;stroke-width:1.0;"/><polygon fill="#A80036" points="60.28,116.76,53.9127,109.2462,55.7769,114.5871,50.436,116.4512,60.28,116.76" style="stroke:#A80036;stroke-width:1.0;"/><text fill="#000000" font-family="sans-serif" font-size="13" lengthAdjust="spacing" textLength="192" x="20.45" y="78.5684">스트레스틑 흡연을 유도할지도 모른다.</text><!--MD5=[a117807f45c5d6441b23f7b4f14ca265]
link 스트레스 to 폐암--><path d="M165.87,29.61 C184.67,35.91 206.17,46.76 217.45,65 C246.79,112.49 217.47,181.57 200.57,213.76 " fill="none" id="스트레스-to-폐암" style="stroke:#A80036;stroke-width:1.0;"/><polygon fill="#A80036" points="198.18,218.24,205.9478,212.1851,200.5352,213.8294,198.8908,208.4168,198.18,218.24" style="stroke:#A80036;stroke-width:1.0;"/><text fill="#000000" font-family="sans-serif" font-size="13" lengthAdjust="spacing" textLength="185" x="230.45" y="131.5684">스트레스는 암 발생을 유도할 것이다.</text><!--MD5=[0b1faa82fbe7d8351658d01a96504344]
@startuml

(흡연) - -> (폐암): 인과관계?
(스트레스) - -> (흡연): 스트레스틑 흡연을 유도할지도 모른다.
(스트레스) - -> (폐암): 스트레스는 암 발생을 유도할 것이다.

@enduml

PlantUML version 1.2021.7(Sun May 23 21:40:07 KST 2021)
(GPL source distribution)
Java Runtime: Java(TM) SE Runtime Environment
JVM: Java HotSpot(TM) 64-Bit Server VM
Default Encoding: UTF-8
Language: en
Country: KR
--></g></svg>